<svg fill="none" height="24" viewBox="0 0 24 24" width="24" xmlns="http://www.w3.org/2000/svg"><g stroke="#17191c" stroke-miterlimit="10" stroke-width="1.5"><path d="m12 6h-2c-1.1 0-2 .9-2 2s.9 2 2 2h2z"/><path d="m12 10h-2c-1.1 0-2 .9-2 2s.9 2 2 2h2z"/><path d="m12 14h-2c-1.1 0-2 .9-2 2s.9 2 2 2 2-.9 2-2z"/><path d="m12 6h2c1.1 0 2 .9 2 2s-.9 2-2 2h-2z"/><path d="m14 10c1.1 0 2 .9 2 2s-.9 2-2 2-2-.9-2-2 .9-2 2-2z"/><path d="m12 22c5.5228 0 10-4.4772 10-10 0-5.52285-4.4772-10-10-10-5.52285 0-10 4.47715-10 10 0 5.5228 4.47715 10 10 10z"/></g></svg>